<svg width="33" height="32" viewBox="0 0 33 32" fill="none" xmlns="http://www.w3.org/2000/svg">
<path d="M5.84375 0H27.1562C30.3875 0 33 2.59829 33 5.81197V26.188C33 29.4017 30.3875 32 27.1562 32H5.84375C2.6125 32 0 29.4017 0 26.188V5.81197C0 2.59829 2.6125 0 5.84375 0Z" fill="white"/>
<path d="M17.3523 8.41021L13.2273 15.1794L17.6273 22.3589C17.6548 22.4136 17.6685 22.4683 17.6548 22.523C17.641 22.5777 17.586 22.5367 17.5035 22.5504H14.3548C14.1348 22.5504 13.9835 22.5367 13.8873 22.4C13.5985 21.8256 13.296 21.2649 13.0073 20.6906C12.7185 20.1299 12.4023 19.5555 12.0723 18.9675C11.7423 18.3794 11.4123 17.7914 11.0823 17.1897H11.0548C10.766 17.7777 10.4498 18.3658 10.1335 18.9538C9.81728 19.5418 9.50103 20.1299 9.19853 20.7042C8.88228 21.2786 8.56603 21.8666 8.24978 22.4273C8.19478 22.5641 8.08478 22.5777 7.93353 22.5777H4.90853C4.85353 22.5777 4.81228 22.6051 4.81228 22.5367C4.79853 22.482 4.81228 22.4273 4.83978 22.3863L9.11603 15.4119L4.94978 8.39653C4.90853 8.34183 4.89478 8.28713 4.92228 8.25978C4.94978 8.21875 5.00478 8.20508 5.05978 8.20508H8.18103C8.24978 8.20508 8.31853 8.21875 8.37353 8.23243C8.42853 8.25978 8.46978 8.3008 8.51103 8.35551C8.77228 8.94354 9.07478 9.53157 9.39103 10.1196C9.72103 10.7076 10.0373 11.282 10.381 11.8564C10.711 12.4307 11.0135 13.0051 11.3023 13.5931H11.3298C11.6185 12.9914 11.921 12.4034 12.2235 11.829C12.526 11.2547 12.8423 10.6803 13.1585 10.1059C13.4748 9.53157 13.7773 8.94354 14.0798 8.38286C14.0935 8.32815 14.121 8.27345 14.1623 8.2461C14.2173 8.21875 14.2723 8.20508 14.341 8.21875H17.2423C17.311 8.20508 17.3798 8.2461 17.3935 8.31448C17.4073 8.32815 17.3798 8.38286 17.3523 8.41021Z" fill="#582CFF"/>
<path d="M23.7045 22.8375C22.687 22.8512 21.6695 22.6461 20.7483 22.2221C19.882 21.8256 19.167 21.1692 18.672 20.3623C18.1633 19.5281 17.9158 18.4888 17.9158 17.2444C17.902 16.2324 18.1633 15.2341 18.672 14.3589C19.1945 13.47 19.9508 12.7315 20.8583 12.2392C21.8208 11.7059 22.9758 11.4461 24.337 11.4461C24.4058 11.4461 24.502 11.4461 24.6258 11.4598C24.7495 11.4734 24.887 11.4734 25.052 11.4871V7.16574C25.052 7.07001 25.0933 7.01531 25.1895 7.01531H27.9808C28.0495 7.00163 28.1045 7.05633 28.1183 7.11104C28.1183 7.12471 28.1183 7.13839 28.1183 7.13839V20.1572C28.1183 20.4033 28.132 20.6768 28.1458 20.9777C28.1733 21.2649 28.187 21.5384 28.2008 21.7709C28.2008 21.8666 28.1595 21.9486 28.0633 21.9897C27.3483 22.2905 26.592 22.5093 25.822 22.6461C25.1208 22.7692 24.4195 22.8375 23.7045 22.8375ZM25.052 20.1025V14.0854C24.9283 14.058 24.8045 14.0307 24.6808 14.017C24.5295 14.0033 24.3783 13.9897 24.227 13.9897C23.6908 13.9897 23.1545 14.0991 22.6733 14.3452C22.2058 14.5777 21.807 14.9196 21.5045 15.3572C21.202 15.7948 21.0508 16.3828 21.0508 17.0939C21.037 17.5726 21.1195 18.0512 21.2845 18.5025C21.422 18.8717 21.6283 19.1999 21.9033 19.4734C22.1645 19.7196 22.4808 19.911 22.8383 20.0204C23.2095 20.1435 23.5945 20.1982 23.9795 20.1982C24.1858 20.1982 24.3783 20.1845 24.557 20.1709C24.7358 20.1845 24.887 20.1572 25.052 20.1025Z" fill="#582CFF"/>
</svg>
