<svg width="33" height="32" viewBox="0 0 33 32" fill="none" xmlns="http://www.w3.org/2000/svg">
<path d="M9.4845 14.7849C9.33764 14.5932 9.1208 14.4674 8.88145 14.4352C8.64209 14.4029 8.39971 14.4668 8.20734 14.6129C8.09417 14.7021 8.00288 14.816 7.94044 14.9459L0.0988266 30.6336C-0.0122374 30.8559 -0.0304801 31.1132 0.0481084 31.349C0.126697 31.5847 0.295685 31.7797 0.517928 31.8909C0.647834 31.9566 0.791452 31.9906 0.93703 31.9901H11.8624C12.0373 31.9946 12.2098 31.948 12.3587 31.8559C12.5076 31.7638 12.6264 31.6303 12.7006 31.4718C15.0586 26.6014 13.6292 19.1965 9.4845 14.7849Z" fill="url(#paint0_linear_217_1382)"/>
<path d="M15.2489 0.509045C13.294 3.5172 12.1548 6.98187 11.9429 10.5631C11.731 14.1444 12.4537 17.7192 14.0401 20.9369L19.3076 31.4718C19.3854 31.6275 19.505 31.7585 19.653 31.8501C19.8011 31.9416 19.9717 31.9901 20.1458 31.9902H31.0689C31.1921 31.9905 31.3141 31.9664 31.428 31.9194C31.5418 31.8724 31.6453 31.8034 31.7324 31.7163C31.8195 31.6292 31.8886 31.5257 31.9356 31.4118C31.9826 31.298 32.0066 31.1759 32.0063 31.0527C32.0064 30.9075 31.9732 30.7641 31.9093 30.6336L16.8437 0.504633C16.7722 0.35366 16.6593 0.22609 16.5181 0.136757C16.377 0.0474239 16.2133 0 16.0463 0C15.8792 0 15.7156 0.0474239 15.5744 0.136757C15.4333 0.22609 15.3204 0.35366 15.2489 0.504633V0.509045Z" fill="white"/>
<defs>
<linearGradient id="paint0_linear_217_1382" x1="13.8012" y1="17.1826" x2="5.52068" y2="31.5247" gradientUnits="userSpaceOnUse">
<stop stop-color="white" stop-opacity="0.29"/>
<stop offset="0.92" stop-color="white"/>
</linearGradient>
</defs>
</svg>
