<svg width="33" height="33" viewBox="0 0 33 33" fill="none" xmlns="http://www.w3.org/2000/svg">
<path d="M30.0085 0H2.99153C1.33934 0 0 1.33934 0 2.99153V30.0085C0 31.6607 1.33934 33 2.99153 33H30.0085C31.6607 33 33 31.6607 33 30.0085V2.99153C33 1.33934 31.6607 0 30.0085 0Z" fill="white"/>
<path d="M11.0285 10.3841C12.1255 10.3841 13.0445 9.52433 13.0445 8.39743C13.0445 7.2713 12.1255 6.41162 11.0285 6.41162C9.9315 6.41162 9.01279 7.2713 9.01279 8.39743C9.01279 9.5242 9.9315 10.3841 11.0285 10.3841ZM6.84858 21.0215C6.73012 21.5255 6.67069 22.0698 6.67069 22.5137C6.67069 24.2631 7.61931 25.4244 9.63528 25.4244C11.3072 25.4244 12.6626 24.4316 13.6386 22.8284L13.0427 25.22H16.3626L18.2601 17.6095C18.7345 15.6826 19.6535 14.6824 21.047 14.6824C22.1438 14.6824 22.8256 15.3646 22.8256 16.4907C22.8256 16.8169 22.796 17.1723 22.6774 17.5579L21.699 21.056C21.5507 21.5601 21.4917 22.0643 21.4917 22.5383C21.4917 24.199 22.4697 25.4137 24.5153 25.4137C26.2644 25.4137 27.6577 24.2877 28.4285 21.5898L27.1242 21.0863C26.472 22.8937 25.9087 23.2205 25.4639 23.2205C25.0192 23.2205 24.782 22.9243 24.782 22.3317C24.782 22.0649 24.8416 21.7688 24.9303 21.4122L25.8791 18.0042C26.1162 17.2039 26.2053 16.4943 26.2053 15.8423C26.2053 13.2928 24.6636 11.9622 22.796 11.9622C21.047 11.9622 19.2681 13.5399 18.3789 15.2003L19.0309 12.22H13.9618L13.2502 14.8451H15.6219L14.1614 20.6923C13.0146 23.2418 10.9078 23.2832 10.6435 23.224C10.2093 23.126 9.93163 22.9611 9.93163 22.3971C9.93163 22.0716 9.99093 21.604 10.1392 21.0403L12.3628 12.22H6.73012L6.01855 14.8451H8.36039L6.84871 21.0215" fill="#582CFF"/>
</svg>
