<svg width="33" height="34" viewBox="0 0 33 34" fill="none" xmlns="http://www.w3.org/2000/svg">
<path fill-rule="evenodd" clip-rule="evenodd" d="M12.099 0.0874023C10.2748 0.0887815 8.7985 1.60315 8.79985 3.46921C8.7985 5.33528 10.2762 6.84964 12.1004 6.85102H15.4009V3.47059C15.4023 1.60453 13.9246 0.0901608 12.099 0.0874023C12.1004 0.0874023 12.1004 0.0874023 12.099 0.0874023V0.0874023ZM12.099 9.1074H3.3003C1.4761 9.10878 -0.00158872 10.6231 -0.000240456 12.4892C-0.00293698 14.3553 1.47476 15.8696 3.29895 15.8724H12.099C13.9232 15.871 15.4009 14.3567 15.3996 12.4906C15.4009 10.6231 13.9232 9.10878 12.099 9.1074Z" fill="white"/>
<path fill-rule="evenodd" clip-rule="evenodd" d="M33.0004 12.4892C33.0018 10.6231 31.5241 9.10878 29.6999 9.1074C27.8757 9.10878 26.398 10.6231 26.3993 12.4892V15.8724H29.6999C31.5241 15.871 33.0018 14.3567 33.0004 12.4892ZM24.2003 12.4892V3.46921C24.2017 1.60453 22.7253 0.0901608 20.9011 0.0874023C19.0769 0.0887815 17.5992 1.60315 17.6006 3.46921V12.4892C17.5979 14.3553 19.0756 15.8696 20.8998 15.8724C22.724 15.871 24.2017 14.3567 24.2003 12.4892Z" fill="white"/>
<path fill-rule="evenodd" clip-rule="evenodd" d="M20.8994 33.9124C22.7236 33.911 24.2013 32.3966 24.2 30.5305C24.2013 28.6645 22.7236 27.1501 20.8994 27.1487H17.5989V30.5305C17.5975 32.3952 19.0752 33.9096 20.8994 33.9124ZM20.8994 24.891H29.6995C31.5237 24.8896 33.0014 23.3752 33.0001 21.5092C33.0027 19.6431 31.5251 18.1287 29.7009 18.126H20.9008C19.0766 18.1274 17.5989 19.6417 17.6002 21.5078C17.5989 23.3752 19.0752 24.8896 20.8994 24.891Z" fill="white"/>
<path fill-rule="evenodd" clip-rule="evenodd" d="M9.21889e-07 21.509C-0.00134734 23.3751 1.47635 24.8895 3.30054 24.8908C5.12474 24.8895 6.60243 23.3751 6.60108 21.509V18.1272H3.30054C1.47635 18.1286 -0.00134734 19.6429 9.21889e-07 21.509ZM8.80009 21.509V30.529C8.79739 32.3951 10.2751 33.9095 12.0993 33.9122C13.9235 33.9109 15.4012 32.3965 15.3998 30.5304V21.5118C15.4025 19.6457 13.9248 18.1313 12.1006 18.1286C10.2751 18.1286 8.79874 19.6429 8.80009 21.509C8.80009 21.509 8.80009 21.5104 8.80009 21.509Z" fill="white"/>
</svg>
