<svg width="33" height="33" viewBox="0 0 33 33" fill="none" xmlns="http://www.w3.org/2000/svg">
<path d="M16.5 0C7.387 0 0 7.387 0 16.5C0 25.613 7.387 33 16.5 33C25.613 33 33 25.613 33 16.5C33 7.38813 25.613 0.0011259 16.5 0ZM24.0671 23.7969C23.771 24.2833 23.1372 24.4353 22.653 24.1392C18.7788 21.7714 13.9014 21.2366 8.15824 22.5483C7.6043 22.6755 7.05261 22.3288 6.92651 21.7748C6.79928 21.2209 7.14493 20.6692 7.7 20.5431C13.9847 19.1076 19.3767 19.7257 23.726 22.3828C24.2101 22.6812 24.3644 23.3128 24.0671 23.7969ZM26.0859 19.3057C25.7132 19.9115 24.9206 20.1006 24.316 19.7291C19.8822 17.0033 13.1201 16.214 7.87451 17.806C7.19447 18.0121 6.47615 17.6281 6.26899 16.9492C6.06407 16.2692 6.448 15.552 7.12692 15.3448C13.1189 13.5265 20.569 14.407 25.6614 17.5369C26.2671 17.9096 26.4585 18.7011 26.0859 19.3057ZM26.2593 14.6265C20.9405 11.4684 12.1676 11.1779 7.08976 12.7181C6.27462 12.9658 5.41218 12.5053 5.16561 11.6902C4.91904 10.875 5.3784 10.0126 6.19468 9.76489C12.0234 7.99611 21.7118 8.33726 27.8344 11.9716C28.5673 12.4074 28.8083 13.3542 28.3737 14.0861C27.9402 14.8202 26.9911 15.0622 26.2593 14.6265Z" fill="white"/>
</svg>
